<?xml version="1.0" encoding="UTF-8"?>
<svg xmlns="http://www.w3.org/2000/svg" viewBox="0 0 1024 1024" width="1024" height="1024">
  <defs>
    <radialGradient id="bg" cx="50%" cy="15%" r="85%">
      <stop offset="0%" stop-color="#06597e"/>
      <stop offset="40%" stop-color="#032642"/>
      <stop offset="100%" stop-color="#011434"/>
    </radialGradient>
    <linearGradient id="pageGrad" x1="0" y1="0" x2="0" y2="1">
      <stop offset="0%" stop-color="#F0D48E"/>
      <stop offset="100%" stop-color="#9A7038"/>
    </linearGradient>
  </defs>
  <rect width="1024" height="1024" fill="url(#bg)"/>
  <g transform="translate(0,35)">
  <svg viewBox="0 0 1024 1024" width="1024" height="1024">
    <g transform="translate(0.000000,1024.000000) scale(0.100000,-0.100000)" fill="url(#pageGrad)">
      <path d="M3591 7210 c-33 -27 -63 -55 -68 -62 -20 -31 -50 -200 -43 -240 9
-48 -5 -121 -59 -308 -22 -74 -61 -211 -86 -305 -26 -93 -58 -210 -72 -260
-43 -158 -74 -308 -68 -332 3 -12 18 -29 34 -37 37 -20 287 -100 527 -170 394
-115 568 -189 760 -323 101 -71 232 -191 304 -280 68 -85 186 -295 175 -313
-4 -6 8 -10 29 -10 l36 0 0 1012 0 1012 -93 90 c-105 103 -173 153 -337 248
-129 75 -169 90 -425 158 -99 27 -261 76 -359 109 -99 34 -183 61 -187 61 -4
0 -35 -22 -68 -50z"/>
      <path d="M6515 7234 c-33 -14 -97 -36 -143 -49 -46 -14 -98 -31 -115 -39 -18
-8 -133 -42 -257 -76 -229 -63 -247 -70 -405 -156 -147 -81 -309 -208 -373
-294 l-42 -55 0 -997 0 -998 33 0 c31 0 34 4 96 125 105 206 256 365 491 517
178 116 320 171 875 337 246 73 375 121 389 143 14 24 -50 276 -228 893 -59
202 -86 338 -77 383 1 8 -7 56 -19 107 -21 92 -22 95 -75 139 -29 25 -61 46
-72 45 -10 0 -45 -12 -78 -25z"/>
    </g>
  </svg>
  <svg viewBox="0 0 1024 1024" width="1024" height="1024">
    <g transform="translate(0.000000,1024.000000) scale(0.100000,-0.100000)" fill="#E1BF71">
      <path d="M4825 10128 c-66 -5 -165 -20 -220 -33 -100 -24 -127 -28 -260 -40
-234 -21 -387 -53 -604 -129 -69 -24 -169 -56 -221 -71 -52 -14 -111 -35 -130
-47 -19 -11 -96 -45 -170 -74 -74 -30 -173 -76 -220 -103 -47 -27 -114 -63
-149 -81 -79 -40 -219 -126 -326 -200 -44 -31 -105 -74 -135 -95 -252 -176
-589 -484 -801 -730 -137 -160 -345 -439 -428 -575 -211 -343 -356 -651 -477
-1013 -115 -347 -150 -512 -210 -1002 -22 -175 -25 -665 -6 -865 47 -482 127
-833 282 -1235 112 -290 172 -416 336 -697 269 -463 616 -875 1044 -1240 371
-316 827 -590 1275 -768 203 -80 541 -189 701 -225 130 -30 244 -43 244 -27 0
5 -40 45 -89 89 l-89 79 -163 43 c-207 56 -317 94 -549 188 -298 121 -414 180
-710 362 -566 347 -1116 898 -1465 1466 -174 283 -361 675 -450 941 -82 245
-169 663 -207 989 -16 143 -17 692 0 845 38 356 126 776 217 1040 60 172 217
540 283 660 335 615 750 1098 1317 1533 82 62 323 222 445 295 174 103 549
279 700 327 80 26 190 62 245 81 109 37 288 79 485 114 69 12 159 28 200 35
141 27 245 36 475 42 329 8 540 -7 839 -62 409 -75 497 -95 576 -129 30 -14
123 -44 205 -67 151 -42 227 -70 255 -93 8 -7 56 -30 105 -51 297 -128 632
-336 975 -606 258 -203 551 -504 780 -800 67 -88 248 -353 258 -379 3 -8 28
-51 55 -95 155 -255 345 -706 432 -1025 31 -113 63 -236 71 -274 30 -143 73
-426 85 -556 15 -170 15 -625 0 -790 -65 -696 -262 -1294 -631 -1915 -152
-256 -258 -402 -460 -634 -269 -308 -562 -573 -855 -774 -455 -311 -917 -526
-1419 -661 -92 -25 -176 -51 -185 -58 -48 -37 -171 -151 -171 -159 0 -30 242
18 515 102 278 85 547 190 750 292 588 294 1061 665 1521 1193 120 137 350
450 405 551 40 72 137 241 175 305 70 116 227 483 307 719 111 324 201 841
215 1224 12 323 -8 652 -59 980 -61 383 -185 785 -369 1191 -99 218 -250 478
-392 675 -40 56 -80 111 -88 123 -119 171 -391 476 -572 641 -206 189 -276
246 -533 436 -161 118 -532 330 -711 405 -258 109 -346 143 -449 173 -61 18
-132 41 -160 52 -126 49 -285 83 -505 109 -91 11 -223 31 -295 44 -71 13 -182
29 -246 35 -134 13 -419 12 -594 -1z"/>
      <path d="M3268 6958 c-7 -13 -22 -50 -32 -83 -10 -33 -51 -152 -91 -265 -41
-113 -87 -243 -104 -290 -16 -47 -62 -175 -101 -285 -127 -356 -174 -501 -167
-519 4 -10 107 -66 243 -132 129 -63 237 -114 238 -114 2 0 167 -80 367 -178
200 -98 391 -191 424 -207 33 -15 275 -135 538 -265 l477 -237 0 93 0 94 -27
0 c-14 0 -58 15 -97 34 -39 18 -82 37 -96 41 -14 4 -117 54 -230 111 -187 94
-712 352 -1130 555 -450 219 -535 264 -538 285 -2 12 20 84 49 160 28 77 91
254 139 394 49 140 120 344 158 453 38 108 66 197 62 197 -6 0 5 71 25 158 5
20 2 22 -44 22 -40 0 -51 -4 -63 -22z"/>
      <path d="M6886 6903 c13 -43 37 -130 55 -193 17 -63 37 -127 45 -142 8 -16 47
-126 88 -245 40 -120 103 -303 140 -408 64 -177 106 -309 106 -327 0 -5 -147
-80 -327 -169 -181 -88 -454 -223 -608 -299 -1087 -537 -1115 -550 -1166 -550
l-39 0 0 -98 0 -98 293 146 c494 245 1513 743 1870 913 78 38 140 73 144 84 4
10 -12 71 -41 153 -27 74 -79 221 -116 325 -99 278 -183 506 -229 622 -22 56
-55 150 -74 210 -46 153 -47 153 -111 153 l-54 0 24 -77z"/>
      <path d="M2933 6948 c-5 -7 -31 -74 -58 -148 -26 -74 -73 -196 -103 -270 -58
-144 -103 -267 -156 -420 -18 -52 -45 -124 -59 -160 -199 -511 -223 -579 -211
-598 6 -10 557 -290 1225 -624 1331 -666 1218 -617 1296 -565 40 27 42 49 6
73 -16 10 -547 278 -1182 596 -635 318 -1158 581 -1162 585 -7 8 20 84 174
488 59 155 234 636 303 835 60 175 65 205 32 214 -39 10 -95 7 -105 -6z"/>
      <path d="M7206 6947 c-18 -13 -18 -17 8 -98 15 -46 37 -106 48 -134 11 -27 53
-142 93 -255 40 -113 91 -252 112 -310 95 -250 250 -677 258 -710 5 -24 -25
-40 -1027 -544 -1491 -749 -2267 -1140 -2393 -1207 -60 -31 -238 -122 -395
-202 -157 -79 -396 -201 -532 -271 -137 -70 -248 -122 -248 -116 0 23 40 87
77 122 21 20 99 78 173 129 169 115 210 149 337 275 78 79 110 118 139 175 88
175 40 313 -124 351 -29 7 -52 15 -52 18 1 3 45 34 99 68 120 78 171 119 171
138 0 16 -72 53 -102 54 -9 0 -39 -13 -65 -29 -227 -135 -474 -299 -500 -330
-35 -42 -56 -97 -49 -126 7 -29 72 -105 90 -105 6 0 76 32 156 71 79 38 171
77 203 86 56 16 58 16 79 -4 29 -30 18 -75 -41 -166 -61 -94 -197 -216 -386
-348 -198 -138 -235 -168 -277 -228 -45 -64 -140 -285 -131 -306 7 -21 75 -55
108 -55 14 0 125 51 248 114 694 356 2397 1215 3833 1935 408 204 753 381 768
392 14 11 26 28 26 38 0 26 -61 200 -123 351 -30 74 -83 209 -117 300 -89 238
-144 384 -215 565 -62 159 -117 310 -130 353 -5 19 -13 22 -54 22 -26 0 -55
-6 -65 -13z"/>
      <path d="M6368 4409 c-24 -12 -38 -27 -38 -39 0 -21 58 -67 188 -150 39 -25
71 -48 71 -51 1 -4 -19 -9 -44 -12 -91 -13 -148 -57 -170 -131 -20 -66 -19
-95 6 -168 49 -145 210 -307 509 -512 63 -43 134 -97 158 -120 43 -40 89 -113
78 -123 -6 -6 -192 85 -441 214 -193 101 -788 405 -1035 530 -91 46 -172 83
-180 83 -25 -1 -115 -54 -118 -71 -4 -20 369 -217 1307 -690 150 -76 279 -143
285 -148 6 -5 71 -39 143 -75 l133 -67 50 22 c27 12 54 27 59 33 7 8 -1 42
-25 107 -82 216 -115 258 -299 381 -253 170 -435 335 -485 439 -33 70 -38 120
-15 139 26 21 105 -3 263 -80 79 -39 154 -70 167 -70 26 0 81 57 91 94 9 35
-27 106 -72 144 -89 75 -511 343 -539 342 -5 -1 -27 -10 -47 -21z"/>
      <path d="M4933 3005 c-166 -31 -330 -97 -462 -188 -62 -42 -183 -159 -240
-231 -89 -112 -155 -243 -198 -396 -31 -106 -42 -333 -24 -460 58 -393 336
-731 722 -877 139 -52 244 -66 444 -60 147 4 182 8 260 31 343 103 625 355
745 668 111 288 103 584 -25 867 -59 133 -109 205 -209 309 -177 183 -355 279
-618 332 -112 23 -283 25 -395 5z m352 -150 c398 -72 698 -357 796 -755 22
-88 17 -346 -9 -441 -62 -229 -203 -422 -405 -554 -143 -93 -237 -128 -417
-156 -150 -23 -376 9 -524 75 -217 97 -416 300 -503 516 -54 133 -68 210 -67
365 0 205 28 300 141 493 121 207 331 366 579 438 125 36 277 43 409 19z"/>
    </g>
  </svg>
  <path d="M295.0,231.9 C295.8,231.9 298.3,232.0 300.0,232.0 C301.7,232.0 303.3,232.0 305.0,232.1 C306.7,232.1 308.3,232.1 310.0,232.1 C311.7,232.1 313.3,232.1 315.0,232.2 C316.7,232.2 318.3,232.2 320.0,232.2 C321.7,232.2 323.3,232.2 325.0,232.2 C326.7,232.2 328.3,232.2 330.0,232.2 C331.7,232.2 333.3,232.2 335.0,232.2 C336.7,232.2 338.3,232.2 340.0,232.2 C341.7,232.2 343.3,232.2 345.0,232.2 C346.7,232.1 348.3,232.2 350.0,232.1 C351.7,232.1 353.3,232.1 355.0,232.0 C356.7,231.8 358.3,231.7 360.0,231.3 C361.7,230.9 363.3,230.5 365.0,229.5 C366.7,228.6 368.3,227.4 370.0,225.6 C371.7,223.9 373.3,221.7 375.0,219.1 C376.7,216.5 378.3,213.1 380.0,210.0 C381.7,207.0 383.3,203.3 385.0,200.8 C386.7,198.2 388.3,195.8 390.0,194.7 C391.7,193.5 393.3,193.2 395.0,194.0 C396.7,194.7 398.3,196.4 400.0,199.1 C401.7,201.9 403.3,205.8 405.0,210.4 C406.7,214.9 408.3,221.1 410.0,226.5 C411.7,231.9 413.3,238.7 415.0,242.8 C416.7,247.0 418.3,250.9 420.0,251.2 C421.7,251.4 423.3,249.1 425.0,244.4 C426.7,239.7 428.3,231.3 430.0,223.0 C431.7,214.7 433.3,203.6 435.0,194.8 C436.7,185.9 438.3,176.4 440.0,169.8 C441.7,163.1 443.3,157.8 445.0,154.9 C446.7,152.0 448.3,151.2 450.0,152.4 C451.7,153.7 453.3,156.9 455.0,162.5 C456.7,168.1 458.3,176.3 460.0,186.0 C461.7,195.7 463.3,208.6 465.0,220.5 C466.7,232.3 468.3,246.8 470.0,257.0 C471.7,267.3 473.3,276.9 475.0,281.8 C476.7,286.8 478.3,287.6 480.0,286.7 C481.7,285.8 483.3,280.6 485.0,276.5 C486.7,272.4 488.3,266.6 490.0,262.0 C491.7,257.5 493.3,253.1 495.0,249.3 C496.7,245.5 498.3,242.2 500.0,239.4 C501.7,236.6 503.3,234.3 505.0,232.7 C506.7,231.1 508.3,230.1 510.0,229.9 C511.7,229.6 513.3,230.0 515.0,231.1 C516.7,232.2 518.3,233.9 520.0,236.3 C521.7,238.8 523.3,242.0 525.0,245.8 C526.7,249.6 528.3,254.3 530.0,259.2 C531.7,264.0 533.3,270.1 535.0,274.7 C536.7,279.3 538.3,285.1 540.0,286.6 C541.7,288.2 543.3,288.3 545.0,284.0 C546.7,279.7 548.3,270.7 550.0,260.7 C551.7,250.8 553.3,236.3 555.0,224.4 C556.7,212.4 558.3,199.1 560.0,189.2 C561.7,179.2 563.3,170.4 565.0,164.4 C566.7,158.4 568.3,154.7 570.0,153.0 C571.7,151.4 573.3,151.8 575.0,154.3 C576.7,156.7 578.3,161.6 580.0,167.7 C581.7,173.9 583.3,182.8 585.0,191.3 C586.7,199.8 588.3,210.3 590.0,218.5 C591.7,226.7 593.3,235.3 595.0,240.5 C596.7,245.7 598.3,249.2 600.0,249.8 C601.7,250.3 603.3,247.3 605.0,243.7 C606.7,240.1 608.3,233.5 610.0,228.1 C611.7,222.8 613.3,216.5 615.0,211.7 C616.7,207.0 618.3,202.8 620.0,199.8 C621.7,196.9 623.3,195.0 625.0,194.0 C626.7,193.1 628.3,193.0 630.0,193.9 C631.7,194.8 633.3,197.0 635.0,199.5 C636.7,202.0 638.3,205.7 640.0,209.0 C641.7,212.3 643.3,216.2 645.0,219.1 C646.7,222.0 647.5,224.4 650.0,226.3 C652.5,228.2 657.5,229.4 660.0,230.4 C662.5,231.3 663.3,231.5 665.0,231.8 C666.7,232.1 668.3,232.1 670.0,232.2 C671.7,232.2 673.3,232.2 675.0,232.2 C676.7,232.1 678.3,232.2 680.0,232.2 C681.7,232.2 683.3,232.2 685.0,232.2 C686.7,232.2 688.3,232.2 690.0,232.2 C691.7,232.2 693.3,232.2 695.0,232.2 C696.7,232.2 698.3,232.2 700.0,232.2 C701.7,232.2 703.3,232.2 705.0,232.2 C706.7,232.2 708.3,232.2 710.0,232.2 C711.7,232.2 713.3,232.2 715.0,232.2 C716.7,232.2 718.3,232.2 720.0,232.2 C721.7,232.2 724.2,232.2 725.0,232.2 L725.0,243.2 C724.2,243.2 721.7,243.2 720.0,243.2 C718.3,243.2 716.7,243.2 715.0,243.2 C713.3,243.2 711.7,243.2 710.0,243.2 C708.3,243.2 706.7,243.2 705.0,243.2 C703.3,243.2 701.7,243.2 700.0,243.2 C698.3,243.2 696.7,243.2 695.0,243.2 C693.3,243.2 691.7,243.2 690.0,243.2 C688.3,243.2 686.7,243.2 685.0,243.2 C683.3,243.2 681.7,243.2 680.0,243.2 C678.3,243.2 676.7,243.1 675.0,243.2 C673.3,243.2 671.7,243.2 670.0,243.2 C668.3,243.1 666.7,243.1 665.0,242.7 C663.3,242.3 662.5,241.8 660.0,240.9 C657.5,239.9 652.5,238.6 650.0,236.8 C647.5,235.1 646.7,232.7 645.0,230.5 C643.3,228.2 641.7,225.7 640.0,223.3 C638.3,221.0 636.7,218.3 635.0,216.2 C633.3,214.0 631.7,211.4 630.0,210.5 C628.3,209.6 626.7,209.2 625.0,210.9 C623.3,212.6 621.7,216.2 620.0,220.7 C618.3,225.2 616.7,231.9 615.0,237.6 C613.3,243.3 611.7,250.1 610.0,255.0 C608.3,259.9 606.7,264.3 605.0,267.0 C603.3,269.6 601.7,270.9 600.0,270.7 C598.3,270.5 596.7,269.1 595.0,266.0 C593.3,262.9 591.7,258.1 590.0,252.1 C588.3,246.1 586.7,237.9 585.0,229.8 C583.3,221.7 581.7,211.3 580.0,203.5 C578.3,195.7 576.7,186.9 575.0,183.2 C573.3,179.4 571.7,177.7 570.0,180.9 C568.3,184.0 566.7,192.3 565.0,201.8 C563.3,211.3 561.7,225.8 560.0,237.8 C558.3,249.8 556.7,263.5 555.0,273.8 C553.3,284.0 551.7,292.9 550.0,299.3 C548.3,305.6 546.7,309.5 545.0,311.8 C543.3,314.0 541.7,314.3 540.0,312.8 C538.3,311.3 536.7,307.5 535.0,302.7 C533.3,298.0 531.7,290.7 530.0,284.3 C528.3,278.0 526.7,270.4 525.0,264.8 C523.3,259.1 521.7,253.9 520.0,250.2 C518.3,246.4 516.7,243.9 515.0,242.3 C513.3,240.7 511.7,240.2 510.0,240.5 C508.3,240.8 506.7,241.9 505.0,244.0 C503.3,246.1 501.7,248.9 500.0,253.0 C498.3,257.0 496.7,262.4 495.0,268.1 C493.3,273.9 491.7,281.5 490.0,287.6 C488.3,293.7 486.7,300.4 485.0,304.7 C483.3,309.0 481.7,312.2 480.0,313.3 C478.3,314.3 476.7,313.6 475.0,310.9 C473.3,308.2 471.7,303.8 470.0,297.0 C468.3,290.3 466.7,280.9 465.0,270.3 C463.3,259.8 461.7,245.9 460.0,233.9 C458.3,222.0 456.7,207.8 455.0,198.8 C453.3,189.7 451.7,182.1 450.0,179.7 C448.3,177.3 446.7,179.8 445.0,184.2 C443.3,188.6 441.7,198.0 440.0,206.0 C438.3,214.1 436.7,224.5 435.0,232.5 C433.3,240.6 431.7,248.6 430.0,254.4 C428.3,260.1 426.7,264.5 425.0,267.2 C423.3,269.9 421.7,271.0 420.0,270.8 C418.3,270.5 416.7,268.7 415.0,265.8 C413.3,262.8 411.7,258.0 410.0,252.9 C408.3,247.9 406.7,241.0 405.0,235.4 C403.3,229.8 401.7,223.3 400.0,219.1 C398.3,215.0 396.7,211.8 395.0,210.5 C393.3,209.2 391.7,210.2 390.0,211.4 C388.3,212.7 386.7,215.7 385.0,218.1 C383.3,220.5 381.7,223.4 380.0,225.8 C378.3,228.1 376.7,230.4 375.0,232.3 C373.3,234.2 371.7,235.9 370.0,237.2 C368.3,238.6 366.7,239.6 365.0,240.5 C363.3,241.3 361.7,241.8 360.0,242.2 C358.3,242.6 356.7,242.8 355.0,242.9 C353.3,243.1 351.7,243.1 350.0,243.1 C348.3,243.2 346.7,243.1 345.0,243.2 C343.3,243.2 341.7,243.2 340.0,243.2 C338.3,243.2 336.7,243.2 335.0,243.2 C333.3,243.2 331.7,243.2 330.0,243.2 C328.3,243.2 326.7,243.2 325.0,243.2 C323.3,243.2 321.7,243.2 320.0,243.2 C318.3,243.2 316.7,243.2 315.0,243.2 C313.3,243.1 311.7,243.1 310.0,243.1 C308.3,243.1 306.7,243.1 305.0,243.0 C303.3,243.0 301.7,242.9 300.0,242.8 C298.3,242.8 295.8,242.6 295.0,242.6 Z" fill="#67EAD4" stroke="none"/>
</g>
</svg>